<svg width="62" height="62" viewBox="0 0 62 62" fill="none" xmlns="http://www.w3.org/2000/svg">
<rect x="2.00653" y="30.8012" width="42.1453" height="42.1453" rx="3" transform="rotate(-45 2.00653 30.8012)" fill="#FFE6C0"/>
<rect y="31.1989" width="42.1453" height="42.1453" rx="2" transform="rotate(-45 0 31.1989)" fill="#F39508"/>
<path d="M21.6155 42.4411C19.4795 36.3114 15.7314 22.8056 22.7682 19.4653C30.3236 15.8789 42.866 19.4653 42.5365 27.7021C42.2071 35.9389 30.6135 30.2049 28.3693 36.2683C27.1187 39.647 31.4488 43.6238 28.3693 45.4935C27.7226 45.8861 26.8533 46.0072 25.9927 45.9975C23.9188 45.9743 22.2979 44.3996 21.6155 42.4411Z" fill="#FFE6C0" stroke="white"/>
<path d="M36.4785 25.9173C36.4785 27.9189 32.8791 29.5415 30.8775 29.5415C28.8759 29.5415 27.2533 27.9189 27.2533 25.9173C27.2533 23.9158 28.8759 22.2932 30.8775 22.2932C32.8791 22.2932 36.4785 23.9158 36.4785 25.9173Z" fill="#F39508"/>
</svg>
